<?xml version="1.0" encoding="UTF-8"?>
<svg xmlns="http://www.w3.org/2000/svg" id="Calque_1" data-name="Calque 1" viewBox="0 0 355.38 359.54">
  <defs>
    <style>
      .cls-1 {
        fill: none;
        stroke: #38533d;
        stroke-linecap: round;
        stroke-linejoin: round;
        stroke-width: 19.42px;
      }

      .cls-2 {
        fill: #bc6c66;
        stroke-width: 0px;
      }
    </style>
  </defs>
  <path class="cls-1" d="m72.12,289.66l-37.87-92.15,63.94,34.8s-25.21-119.45,9.99-149.96c35.21-30.51,107.94-8.5,98.48,91.39,0,0,55.58-63.57,100.56-9.39,46.21,55.67-27.7,139.2-148.58,126.29"></path>
  <path class="cls-2" d="m231.72,129.24c-6.59,7.4.9-24.64,6.83-36.85,7.91-16.27,18.38-21.63,27.21-15.77,8.6,5.71,20.41,14.82,7.16,18.08-30.7,7.56-28.22,19.97-41.2,34.54Z"></path>
  <path class="cls-2" d="m234.78,65.82c-.63,20.67-13.36,36.51-13.36,36.51,0,0-17.71-17.75-21.67-34.69-3.97-16.94,10.18-31.71,10.18-31.71,0,0,25.48,9.22,24.85,29.89Z"></path>
</svg>
